<svg xmlns="http://www.w3.org/2000/svg" xmlns:xlink="http://www.w3.org/1999/xlink" data-stacking-context="true" aria-owns="html1" width="370" height="62" viewBox="0 0 370 62">
    <!-- Generated by https://github.com/felixfbecker/svg-screenshots from github-download-button.html -->
    <style/>
    <g data-stacking-layer="rootBackgroundAndBorders"/>
    <g data-stacking-layer="childStackingContextsWithNegativeStackLevels"/>
    <g data-stacking-layer="inFlowNonInlineNonPositionedDescendants"/>
    <g data-stacking-layer="nonPositionedFloats"/>
    <g data-stacking-layer="inFlowInlineLevelNonPositionedDescendants"/>
    <g data-stacking-layer="childStackingContextsWithStackLevelZeroAndPositionedDescendantsWithStackLevelZero"/>
    <g data-stacking-layer="childStackingContextsWithPositiveStackLevels"/>
    <g data-tag="html" id="html1" data-z-index="auto" data-stacking-context="true" aria-owns="head1 body1 script1">
        <g data-tag="body" id="body1" data-z-index="auto" data-stacking-context="true" role="document" aria-owns="download-button1">
            <g data-stacking-layer="rootBackgroundAndBorders">
                <rect width="370" height="62" x="0" y="0" fill="rgb(51, 148, 16)" rx="5" ry="5"/>
                <rect width="366" height="58" x="2" y="2" fill="rgb(51, 167, 0)" rx="3" ry="3"/>
                <g transform="translate(10,6)">
                    <path style="transform: scale(0.5)" fill-rule="evenodd" clip-rule="evenodd" d="M48.854 0C21.839 0 0 22 0 49.217c0 21.756 13.993 40.172 33.405 46.69 2.427.49 3.316-1.059 3.316-2.362 0-1.141-.08-5.052-.08-9.127-13.59 2.934-16.42-5.867-16.42-5.867-2.184-5.704-5.42-7.17-5.42-7.17-4.448-3.015.324-3.015.324-3.015 4.934.326 7.523 5.052 7.523 5.052 4.367 7.496 11.404 5.378 14.235 4.074.404-3.178 1.699-5.378 3.074-6.6-10.839-1.141-22.243-5.378-22.243-24.283 0-5.378 1.94-9.778 5.014-13.2-.485-1.222-2.184-6.275.486-13.038 0 0 4.125-1.304 13.426 5.052a46.97 46.97 0 0 1 12.214-1.63c4.125 0 8.33.571 12.213 1.63 9.302-6.356 13.427-5.052 13.427-5.052 2.67 6.763.97 11.816.485 13.038 3.155 3.422 5.015 7.822 5.015 13.2 0 18.905-11.404 23.06-22.324 24.283 1.78 1.548 3.316 4.481 3.316 9.126 0 6.6-.08 11.897-.08 13.526 0 1.304.89 2.853 3.316 2.364 19.412-6.52 33.405-24.935 33.405-46.691C97.707 22 75.788 0 48.854 0z" fill="#fff"/>
                </g>
            </g>
            <g data-stacking-layer="inFlowNonInlineNonPositionedDescendants">
                <g data-tag="span" id="span1" data-z-index="auto" data-stacking-context="true">
                    <text color="rgb(255, 255, 255)" dominant-baseline="text-after-edge" font-family="serif" font-size="14px" font-size-adjust="none" font-stretch="100%" font-style="normal" font-variant="normal" font-weight="700" direction="ltr" letter-spacing="normal" text-decoration="rgb(255, 255, 255)" text-anchor="start" text-rendering="auto" unicode-bidi="normal" word-spacing="0px" writing-mode="horizontal-tb" user-select="auto" fill="rgb(255, 255, 255)">
                        <tspan xml:space="preserve" x="222" y="24" textLength="126" lengthAdjust="spacingAndGlyphs">version from GitHub</tspan>
                    </text>
                </g>
            </g>
            <text color="rgb(255, 255, 255)" dominant-baseline="text-after-edge" font-family="serif" font-size="28px" font-size-adjust="none" font-stretch="100%" font-style="normal" font-variant="normal" font-weight="700" direction="ltr" letter-spacing="normal" text-decoration="rgb(255, 255, 255)" text-anchor="start" text-rendering="auto" unicode-bidi="normal" word-spacing="0px" writing-mode="horizontal-tb" user-select="auto" fill="rgb(255, 255, 255)">
                <tspan xml:space="preserve" x="72" y="39" textLength="121" lengthAdjust="spacingAndGlyphs">Download</tspan>
            </text>
            <g data-tag="span" id="span2" data-z-index="auto" data-stacking-context="true" aria-owns="tt1">
                <g data-tag="tt" id="tt1" data-z-index="auto" data-stacking-context="true">
                    <text color="rgb(255, 255, 255)" dominant-baseline="text-after-edge" font-family="monospace" font-size="14px" font-size-adjust="none" font-stretch="100%" font-style="normal" font-variant="normal" font-weight="700" direction="ltr" letter-spacing="normal" text-decoration="rgb(255, 255, 255)" text-anchor="start" text-rendering="auto" unicode-bidi="normal" word-spacing="0px" writing-mode="horizontal-tb" user-select="auto" fill="rgb(255, 255, 255)">
                        <tspan xml:space="preserve" x="72" y="58" textLength="56" lengthAdjust="spacingAndGlyphs">/&lt;FILE&gt;</tspan>
                    </text>
                </g>
            </g>
        </g>
    </g>
</svg>