<?xml version="1.0" encoding="UTF-8" standalone="no"?>
<!-- Created with Inkscape (http://www.inkscape.org/) -->

<svg
   xmlns:dc="http://purl.org/dc/elements/1.1/"
   xmlns:cc="http://creativecommons.org/ns#"
   xmlns:rdf="http://www.w3.org/1999/02/22-rdf-syntax-ns#"
   xmlns:svg="http://www.w3.org/2000/svg"
   xmlns="http://www.w3.org/2000/svg"
   xmlns:xlink="http://www.w3.org/1999/xlink"
   xmlns:sodipodi="http://sodipodi.sourceforge.net/DTD/sodipodi-0.dtd"
   xmlns:inkscape="http://www.inkscape.org/namespaces/inkscape"
   width="64"
   height="64"
   id="svg2"
   version="1.1"
   inkscape:version="0.47 r22583"
   sodipodi:docname="dc-illustrious.svg">
  <defs
     id="defs4">
    <linearGradient
       inkscape:collect="always"
       id="linearGradient3853">
      <stop
         style="stop-color:#c55156;stop-opacity:1"
         offset="0"
         id="stop3855" />
      <stop
         style="stop-color:#f39faa;stop-opacity:1"
         offset="1"
         id="stop3857" />
    </linearGradient>
    <linearGradient
       inkscape:collect="always"
       id="linearGradient3845">
      <stop
         style="stop-color:#c55156;stop-opacity:1"
         offset="0"
         id="stop3847" />
      <stop
         style="stop-color:#c55156;stop-opacity:1"
         offset="1"
         id="stop3849" />
    </linearGradient>
    <inkscape:perspective
       sodipodi:type="inkscape:persp3d"
       inkscape:vp_x="0 : 526.18109 : 1"
       inkscape:vp_y="0 : 1000 : 0"
       inkscape:vp_z="744.09448 : 526.18109 : 1"
       inkscape:persp3d-origin="372.04724 : 350.78739 : 1"
       id="perspective10" />
    <inkscape:perspective
       id="perspective2863"
       inkscape:persp3d-origin="0.5 : 0.33333333 : 1"
       inkscape:vp_z="1 : 0.5 : 1"
       inkscape:vp_y="0 : 1000 : 0"
       inkscape:vp_x="0 : 0.5 : 1"
       sodipodi:type="inkscape:persp3d" />
    <inkscape:perspective
       id="perspective3667"
       inkscape:persp3d-origin="0.5 : 0.33333333 : 1"
       inkscape:vp_z="1 : 0.5 : 1"
       inkscape:vp_y="0 : 1000 : 0"
       inkscape:vp_x="0 : 0.5 : 1"
       sodipodi:type="inkscape:persp3d" />
    <inkscape:perspective
       id="perspective3692"
       inkscape:persp3d-origin="0.5 : 0.33333333 : 1"
       inkscape:vp_z="1 : 0.5 : 1"
       inkscape:vp_y="0 : 1000 : 0"
       inkscape:vp_x="0 : 0.5 : 1"
       sodipodi:type="inkscape:persp3d" />
    <inkscape:perspective
       id="perspective3718"
       inkscape:persp3d-origin="0.5 : 0.33333333 : 1"
       inkscape:vp_z="1 : 0.5 : 1"
       inkscape:vp_y="0 : 1000 : 0"
       inkscape:vp_x="0 : 0.5 : 1"
       sodipodi:type="inkscape:persp3d" />
    <inkscape:perspective
       id="perspective3740"
       inkscape:persp3d-origin="0.5 : 0.33333333 : 1"
       inkscape:vp_z="1 : 0.5 : 1"
       inkscape:vp_y="0 : 1000 : 0"
       inkscape:vp_x="0 : 0.5 : 1"
       sodipodi:type="inkscape:persp3d" />
    <inkscape:perspective
       id="perspective3765"
       inkscape:persp3d-origin="0.5 : 0.33333333 : 1"
       inkscape:vp_z="1 : 0.5 : 1"
       inkscape:vp_y="0 : 1000 : 0"
       inkscape:vp_x="0 : 0.5 : 1"
       sodipodi:type="inkscape:persp3d" />
    <inkscape:perspective
       id="perspective3765-8"
       inkscape:persp3d-origin="0.5 : 0.33333333 : 1"
       inkscape:vp_z="1 : 0.5 : 1"
       inkscape:vp_y="0 : 1000 : 0"
       inkscape:vp_x="0 : 0.5 : 1"
       sodipodi:type="inkscape:persp3d" />
    <inkscape:perspective
       id="perspective3801"
       inkscape:persp3d-origin="0.5 : 0.33333333 : 1"
       inkscape:vp_z="1 : 0.5 : 1"
       inkscape:vp_y="0 : 1000 : 0"
       inkscape:vp_x="0 : 0.5 : 1"
       sodipodi:type="inkscape:persp3d" />
    <inkscape:perspective
       id="perspective3827"
       inkscape:persp3d-origin="0.5 : 0.33333333 : 1"
       inkscape:vp_z="1 : 0.5 : 1"
       inkscape:vp_y="0 : 1000 : 0"
       inkscape:vp_x="0 : 0.5 : 1"
       sodipodi:type="inkscape:persp3d" />
    <linearGradient
       inkscape:collect="always"
       xlink:href="#linearGradient3845"
       id="linearGradient3851"
       x1="-16.828192"
       y1="1051.5208"
       x2="-16.828192"
       y2="1080.4272"
       gradientUnits="userSpaceOnUse"
       gradientTransform="translate(49.081942,-35.665254)" />
    <linearGradient
       inkscape:collect="always"
       xlink:href="#linearGradient3853"
       id="linearGradient3859"
       x1="26.751625"
       y1="11.982949"
       x2="32.25"
       y2="41.954678"
       gradientUnits="userSpaceOnUse" />
    <filter
       inkscape:collect="always"
       id="filter3921">
      <feGaussianBlur
         inkscape:collect="always"
         stdDeviation="1.5490381"
         id="feGaussianBlur3923" />
    </filter>
    <inkscape:perspective
       id="perspective3937"
       inkscape:persp3d-origin="0.5 : 0.33333333 : 1"
       inkscape:vp_z="1 : 0.5 : 1"
       inkscape:vp_y="0 : 1000 : 0"
       inkscape:vp_x="0 : 0.5 : 1"
       sodipodi:type="inkscape:persp3d" />
    <linearGradient
       inkscape:collect="always"
       xlink:href="#linearGradient3853-5"
       id="linearGradient3859-0"
       x1="26.751625"
       y1="11.982949"
       x2="32.25"
       y2="41.954678"
       gradientUnits="userSpaceOnUse" />
    <linearGradient
       inkscape:collect="always"
       id="linearGradient3853-5">
      <stop
         style="stop-color:#f3614d;stop-opacity:1;"
         offset="0"
         id="stop3855-2" />
      <stop
         style="stop-color:#ffb7ad;stop-opacity:1"
         offset="1"
         id="stop3857-4" />
    </linearGradient>
    <linearGradient
       inkscape:collect="always"
       xlink:href="#linearGradient3845-4"
       id="linearGradient3851-9"
       x1="-16.828192"
       y1="1051.5208"
       x2="-16.828192"
       y2="1080.4272"
       gradientUnits="userSpaceOnUse"
       gradientTransform="translate(49.081942,-35.665254)" />
    <linearGradient
       inkscape:collect="always"
       id="linearGradient3845-4">
      <stop
         style="stop-color:#f3614d;stop-opacity:1;"
         offset="0"
         id="stop3847-5" />
      <stop
         style="stop-color:#a43e30;stop-opacity:1"
         offset="1"
         id="stop3849-6" />
    </linearGradient>
    <linearGradient
       y2="1080.4272"
       x2="-16.828192"
       y1="1051.5208"
       x1="-16.828192"
       gradientTransform="translate(49.081942,-35.665254)"
       gradientUnits="userSpaceOnUse"
       id="linearGradient3952"
       xlink:href="#linearGradient3845-4"
       inkscape:collect="always" />
    <linearGradient
       inkscape:collect="always"
       xlink:href="#linearGradient3845-4"
       id="linearGradient3986"
       gradientUnits="userSpaceOnUse"
       gradientTransform="translate(-11.407761,-1.235127)"
       x1="-16.828192"
       y1="1051.5208"
       x2="-16.828192"
       y2="1080.4272" />
    <linearGradient
       inkscape:collect="always"
       xlink:href="#linearGradient3853-5"
       id="linearGradient3989"
       gradientUnits="userSpaceOnUse"
       x1="26.751625"
       y1="11.982949"
       x2="32.25"
       y2="41.954678"
       gradientTransform="translate(-60.489703,34.43012)" />
    <filter
       inkscape:collect="always"
       id="filter3998">
      <feGaussianBlur
         inkscape:collect="always"
         stdDeviation="0.48702825"
         id="feGaussianBlur4000" />
    </filter>
    <inkscape:perspective
       id="perspective2860"
       inkscape:persp3d-origin="0.5 : 0.33333333 : 1"
       inkscape:vp_z="1 : 0.5 : 1"
       inkscape:vp_y="0 : 1000 : 0"
       inkscape:vp_x="0 : 0.5 : 1"
       sodipodi:type="inkscape:persp3d" />
    <inkscape:perspective
       id="perspective2861"
       inkscape:persp3d-origin="0.5 : 0.33333333 : 1"
       inkscape:vp_z="1 : 0.5 : 1"
       inkscape:vp_y="0 : 1000 : 0"
       inkscape:vp_x="0 : 0.5 : 1"
       sodipodi:type="inkscape:persp3d" />
    <inkscape:perspective
       id="perspective2862"
       inkscape:persp3d-origin="0.5 : 0.33333333 : 1"
       inkscape:vp_z="1 : 0.5 : 1"
       inkscape:vp_y="0 : 1000 : 0"
       inkscape:vp_x="0 : 0.5 : 1"
       sodipodi:type="inkscape:persp3d" />
    <inkscape:perspective
       id="perspective2863-9"
       inkscape:persp3d-origin="0.5 : 0.33333333 : 1"
       inkscape:vp_z="1 : 0.5 : 1"
       inkscape:vp_y="0 : 1000 : 0"
       inkscape:vp_x="0 : 0.5 : 1"
       sodipodi:type="inkscape:persp3d" />
    <inkscape:perspective
       id="perspective2864"
       inkscape:persp3d-origin="0.5 : 0.33333333 : 1"
       inkscape:vp_z="1 : 0.5 : 1"
       inkscape:vp_y="0 : 1000 : 0"
       inkscape:vp_x="0 : 0.5 : 1"
       sodipodi:type="inkscape:persp3d" />
  </defs>
  <sodipodi:namedview
     id="base"
     pagecolor="#ffffff"
     bordercolor="#666666"
     borderopacity="1.0"
     inkscape:pageopacity="0.0"
     inkscape:pageshadow="2"
     inkscape:zoom="5.0721385"
     inkscape:cx="67.581262"
     inkscape:cy="42.837874"
     inkscape:document-units="px"
     inkscape:current-layer="layer1"
     showgrid="false"
     showguides="true"
     inkscape:guide-bbox="true"
     inkscape:snap-grids="false"
     inkscape:window-width="1280"
     inkscape:window-height="725"
     inkscape:window-x="0"
     inkscape:window-y="25"
     inkscape:window-maximized="1">
    <inkscape:grid
       type="xygrid"
       id="grid2871"
       empspacing="5"
       visible="true"
       enabled="true"
       snapvisiblegridlinesonly="true" />
  </sodipodi:namedview>
  <metadata
     id="metadata7">
    <rdf:RDF>
      <cc:Work
         rdf:about="">
        <dc:format>image/svg+xml</dc:format>
        <dc:type
           rdf:resource="http://purl.org/dc/dcmitype/StillImage" />
        <dc:title />
      </cc:Work>
    </rdf:RDF>
  </metadata>
  <g
     inkscape:label="Layer 1"
     inkscape:groupmode="layer"
     id="layer1"
     transform="translate(0,-988.36218)">
    <path
       style="fill:#939393;fill-opacity:1;stroke:none;filter:url(#filter3921);opacity:1"
       d="m 7.6746323,991.16703 c -2.3216,0 -4.21875,1.8972 -4.21875,4.2188 l 0,51.15627 c 0,1.7412 1.08077,3.2326 2.59375,3.875 0.50433,0.2141 1.0446,0.3437 1.625,0.3437 l 51.1562537,0 c 0.279583,0 0.548598,-0.041 0.8125,-0.094 0.430024,-0.087 0.815407,-0.2622 1.1875,-0.4688 0.145417,-0.081 0.303352,-0.153 0.4375,-0.25 0.177048,-0.1279 0.345216,-0.2843 0.5,-0.4375 0.296116,-0.2957 0.551717,-0.6268 0.75,-1 0.05478,-0.1031 0.110114,-0.2044 0.15625,-0.3125 0.221639,-0.5147 0.34375,-1.0609 0.34375,-1.6562 l 0,-51.15627 c 0,-0.2902 -0.03734,-0.5697 -0.09375,-0.8438 -0.279791,-1.3802 -1.232798,-2.5007 -2.5,-3.0312 -0.243016,-0.1032 -0.486554,-0.1938 -0.75,-0.25 -0.01,0 -0.02123,0 -0.03125,0 -0.264032,-0.054 -0.533389,-0.092 -0.8125,-0.094 l -51.1562537,0 z"
       id="path3657-8" />
    <path
       style="fill:#ffffff;fill-opacity:1;stroke:none;stroke-opacity:1;stroke-width:0.10000000000000001;stroke-miterlimit:4;stroke-dasharray:none"
       d="M 6.84375 2.15625 C 4.52215 2.15625 2.625 4.0534 2.625 6.375 L 2.625 57.53125 C 2.625 59.27245 3.7057656 60.763837 5.21875 61.40625 C 5.7230781 61.620388 6.26335 61.75 6.84375 61.75 L 58 61.75 C 58.279583 61.75 58.548598 61.708706 58.8125 61.65625 C 59.242524 61.569079 59.627907 61.394029 60 61.1875 C 60.145417 61.106763 60.303352 61.034468 60.4375 60.9375 C 60.614548 60.809553 60.782716 60.653202 60.9375 60.5 C 61.233616 60.204282 61.489217 59.873158 61.6875 59.5 C 61.742278 59.396881 61.797614 59.295529 61.84375 59.1875 C 62.065389 58.672793 62.1875 58.126617 62.1875 57.53125 L 62.1875 6.375 C 62.1875 6.0848 62.15016 5.8053082 62.09375 5.53125 C 61.813959 4.1510012 60.860952 3.0304781 59.59375 2.5 C 59.350734 2.3968207 59.107196 2.3062297 58.84375 2.25 C 58.833755 2.2479362 58.822522 2.251992 58.8125 2.25 C 58.548468 2.1956555 58.279111 2.1583359 58 2.15625 L 6.84375 2.15625 z "
       transform="translate(0,988.36218)"
       id="path3657" />
    <path
       style="fill:#908d8d;fill-opacity:1;stroke:none;filter:url(#filter3998)"
       d="m 12.2115,996.34505 c -1.89768,0 -3.4375,1.5398 -3.4375,3.4375 l 0,1.03135 c 0.810731,-0.1042 1.630001,-0.1875 2.46875,-0.1875 9.558901,0 17.536702,6.9836 19.25,16.2188 -0.0099,0 -0.02131,0 -0.03125,0 0.113193,0.6057 0.215798,1.194 0.28125,1.8125 0.02758,0.2941 0.07889,0.5773 0.09375,0.875 0.01977,0.3342 0,0.6905 0,1.0312 0,0.3441 0.01696,0.6603 0,1 -4.99e-4,0.01 5.14e-4,0.021 0,0.031 -0.226494,4.4051 -1.877195,8.432 -4.46875,11.625 -0.0053,0.01 0.0053,0.025 0,0.031 -0.185878,0.2285 -0.398227,0.4365 -0.59375,0.6563 -0.224854,0.2532 -0.450321,0.5088 -0.6875,0.75 -1.326596,1.346 -2.841095,2.5203 -4.5,3.4375 -1.110431,0.6139 -2.273669,1.1116 -3.5,1.5 -1.839497,0.5826 -3.817897,0.9062 -5.84375,0.9062 -0.838749,0 -1.658018,-0.052 -2.46875,-0.1562 l 0,1.25 c 0,0.1779 0.0358,0.3289 0.0625,0.5 0.0015,0.01 -0.0015,0.021 0,0.031 0.108027,0.6923 0.417026,1.2856 0.875,1.7813 0.337303,0.3698 0.723731,0.6781 1.1875,0.875 0.412239,0.1751 0.83808,0.2812 1.3125,0.2812 l 41.8125,0 c 0.228532,0 0.471785,-0.051 0.6875,-0.094 0.351502,-0.071 0.6646,-0.2062 0.96875,-0.375 0.118864,-0.066 0.234097,-0.1082 0.34375,-0.1875 0.144719,-0.1045 0.279728,-0.2498 0.40625,-0.375 0.115598,-0.1155 0.241908,-0.247 0.34375,-0.375 0.0053,-0.01 -0.0053,-0.024 0,-0.031 0.105735,-0.1348 0.200211,-0.2537 0.28125,-0.4062 0.04478,-0.084 0.08729,-0.1617 0.125,-0.25 0.08685,-0.2017 0.171263,-0.4361 0.21875,-0.6563 0.0021,-0.01 -0.002,-0.021 0,-0.031 0.04767,-0.2304 0.0625,-0.4442 0.0625,-0.6875 l 0,-1.2813 c -0.920849,0.1358 -1.854523,0.1875 -2.8125,0.1875 -2.025853,0 -3.973003,-0.3236 -5.8125,-0.9062 -1.226331,-0.3884 -2.389569,-0.8861 -3.5,-1.5 -6.10737,-3.3766 -10.28125,-9.9622 -10.28125,-17.5313 0,-0.3804 0.01214,-0.7831 0.03125,-1.1562 0.05474,-0.9756 0.187024,-1.9419 0.375,-2.875 1.830027,-9.0845 9.733521,-15.9063 19.1875,-15.9063 0.957977,0 1.891651,0.083 2.8125,0.2188 l 0,-1.06265 c 0,-0.2372 -0.04764,-0.4635 -0.09375,-0.6875 -0.228701,-1.1282 -0.995436,-2.0352 -2.03125,-2.4688 -0.198642,-0.084 -0.409657,-0.1728 -0.625,-0.2187 -0.21582,-0.044 -0.459354,-0.062 -0.6875,-0.062 l -41.8125,0 z m -0.5625,12.28135 c -0.997602,0 -1.956882,0.1722 -2.875,0.4375 l 0,22.1875 0,0.1563 c 0.916557,0.2659 1.879293,0.4062 2.875,0.4062 1.130068,0 2.225234,-0.1928 3.25,-0.5312 0.683177,-0.2256 1.350593,-0.5183 1.96875,-0.875 1.846805,-1.0657 3.367947,-2.6959 4.375,-4.6563 0.0042,-0.01 -0.0042,-0.023 0,-0.031 0.499017,-0.977 0.875178,-2.0346 1.09375,-3.1563 0.0019,-0.01 -0.0019,-0.021 0,-0.031 0.145188,-0.7552 0.21875,-1.5113 0.21875,-2.3125 0,-0.2634 -0.01503,-0.5224 -0.03125,-0.7813 -0.378832,-6.0429 -5.095884,-10.8125 -10.875,-10.8125 z m 42.59375,0 c -4.741648,0 -8.769198,3.1978 -10.28125,7.6875 -0.01032,0 -0.02092,0 -0.03125,0 -0.04274,0.1259 -0.05538,0.2475 -0.09375,0.375 -0.02162,0.072 -0.04218,0.1462 -0.0625,0.2188 -0.05815,0.2087 -0.109661,0.4119 -0.15625,0.625 -0.03233,0.1444 -0.06657,0.291 -0.09375,0.4375 -0.04223,0.2352 -0.06527,0.4785 -0.09375,0.7187 -0.01444,0.1157 -0.0513,0.2271 -0.0625,0.3438 -0.0348,0.3853 -0.0625,0.7898 -0.0625,1.1875 0,0.4006 0.02506,0.7974 0.0625,1.1875 0.07487,0.7801 0.223994,1.5236 0.4375,2.25 0.213506,0.7263 0.506432,1.4053 0.84375,2.0625 0.0042,0.01 -0.0042,0.023 0,0.031 0.16518,0.32 0.339298,0.6368 0.53125,0.9375 0.393667,0.6168 0.848501,1.1945 1.34375,1.7188 0.742874,0.7864 1.601497,1.4649 2.53125,2 0.619835,0.3567 1.253133,0.6494 1.9375,0.875 1.034392,0.3441 2.110051,0.5312 3.25,0.5312 0.559935,0 1.118682,-0.065 1.65625,-0.1562 0.537568,-0.091 1.053957,-0.2083 1.5625,-0.375 l 0,-10.6563 0,-11.4687 c -1.01696,-0.3315 -2.099036,-0.5313 -3.21875,-0.5313 z"
       id="path3657-4-4" />
    <g
       id="g3925">
      <path
         id="path3657-4"
         transform="translate(0,988.36218)"
         d="M 11.34375 7.6875 C 9.4460695 7.6875 7.90625 9.22732 7.90625 11.125 L 7.90625 12.15625 C 8.7169812 12.052121 9.5362513 11.96875 10.375 11.96875 C 21.179547 11.96875 29.96875 20.89665 29.96875 31.90625 C 29.96875 42.91575 21.179547 51.84375 10.375 51.84375 C 9.5362513 51.84375 8.7169812 51.792012 7.90625 51.6875 L 7.90625 52.9375 C 7.90625 54.3608 8.7945345 55.5999 10.03125 56.125 C 10.443489 56.3001 10.86933 56.40625 11.34375 56.40625 L 53.15625 56.40625 C 53.384782 56.40625 53.628035 56.3555 53.84375 56.3125 C 54.195252 56.2415 54.50835 56.1063 54.8125 55.9375 C 54.931364 55.8715 55.046597 55.8293 55.15625 55.75 C 55.300969 55.6455 55.435978 55.5002 55.5625 55.375 C 55.804546 55.1333 56.025423 54.8675 56.1875 54.5625 C 56.23228 54.4785 56.274791 54.4008 56.3125 54.3125 C 56.493668 53.8917 56.59375 53.4241 56.59375 52.9375 L 56.59375 51.65625 C 55.672901 51.791991 54.739227 51.84375 53.78125 51.84375 C 42.976703 51.84375 34.1875 42.91575 34.1875 31.90625 C 34.1875 20.89665 42.976703 11.96875 53.78125 11.96875 C 54.739227 11.96875 55.672901 12.052252 56.59375 12.1875 L 56.59375 11.125 C 56.59375 10.88779 56.54611 10.66155 56.5 10.4375 C 56.271299 9.30932 55.504564 8.40239 54.46875 7.96875 C 54.270108 7.88445 54.059093 7.79594 53.84375 7.75 C 53.62793 7.7059 53.384396 7.6891 53.15625 7.6875 L 11.34375 7.6875 z M 10.78125 19.96875 C 9.7836478 19.96875 8.8243677 20.140972 7.90625 20.40625 L 7.90625 42.75 C 8.8228065 43.015881 9.7855428 43.15625 10.78125 43.15625 C 16.808277 43.15625 21.6875 37.9721 21.6875 31.5625 C 21.6875 25.1528 16.808277 19.96875 10.78125 19.96875 z M 53.375 19.96875 C 47.347973 19.96875 42.4375 25.1528 42.4375 31.5625 C 42.4375 37.9721 47.347973 43.15625 53.375 43.15625 C 54.494871 43.15625 55.576665 42.958486 56.59375 42.625 L 56.59375 20.5 C 55.57679 20.168547 54.494714 19.96875 53.375 19.96875 z "
         style="fill:url(#linearGradient3859);fill-opacity:1;stroke:none;stroke-width:0.08174022000000000;stroke-miterlimit:4;stroke-opacity:1;stroke-dasharray:none" />
      <path
         id="path3657-4-9"
         d="m 34.535,1015.8559 c -1.684269,0.1372 -3.337249,0.3559 -4.9375,0.6875 0.226385,1.2115 0.375,2.4404 0.375,3.7188 0,11.0095 -8.789203,19.9375 -19.59375,19.9375 -0.838749,0 -1.658018,-0.052 -2.46875,-0.1563 l 0,1.25 c 0,1.4233 0.888284,2.6624 2.125,3.1875 0.412239,0.1751 0.83808,0.2813 1.3125,0.2813 l 41.8125,0 c 0.228532,0 0.471785,-0.051 0.6875,-0.094 0.351502,-0.071 0.6646,-0.2062 0.96875,-0.375 0.118864,-0.066 0.234097,-0.1082 0.34375,-0.1875 0.144719,-0.1045 0.279728,-0.2498 0.40625,-0.375 0.242046,-0.2417 0.462923,-0.5075 0.625,-0.8125 0.04478,-0.084 0.08729,-0.1617 0.125,-0.25 0.181168,-0.4208 0.28125,-0.8884 0.28125,-1.375 l 0,-1.2812 c -0.920849,0.1358 -1.854523,0.1875 -2.8125,0.1875 -10.804547,0 -19.59375,-8.928 -19.59375,-19.9375 0,-1.5218 0.150821,-2.9822 0.46875,-4.4063 -0.04115,0 -0.0839,0 -0.125,0 z m 8.53125,0.1563 c -0.415912,1.2249 -0.625,2.5287 -0.625,3.9062 0,6.4096 4.910473,11.5938 10.9375,11.5938 1.119871,0 2.201665,-0.1978 3.21875,-0.5313 l 0,-10.6562 c -3.979789,-2.1741 -8.568392,-3.6965 -13.53125,-4.3125 z m -21.40625,3.125 c -5.961249,2.6988 -10.805757,6.8274 -13.75,11.8125 l 0,0.1562 c 0.916557,0.2659 1.879293,0.4063 2.875,0.4063 6.027027,0 10.90625,-5.1842 10.90625,-11.5938 0,-0.2634 -0.01503,-0.5223 -0.03125,-0.7812 z"
         style="fill:url(#linearGradient3851);fill-opacity:1;stroke:none" />
    </g>
  </g>
</svg>
